<svg width="9" height="9" viewBox="0 0 9 9" fill="none" xmlns="http://www.w3.org/2000/svg">
<path d="M3.01028 7.05856C3.01028 7.09481 2.96855 7.12381 2.91593 7.12381C2.85605 7.12925 2.81431 7.10025 2.81431 7.05856C2.81431 7.0223 2.85605 6.9933 2.90867 6.9933C2.9631 6.98786 3.01028 7.01687 3.01028 7.05856ZM2.44597 6.97699C2.43327 7.01324 2.46956 7.05493 2.52399 7.06581C2.57117 7.08394 2.6256 7.06581 2.63649 7.02956C2.64738 6.9933 2.6129 6.95161 2.55847 6.9353C2.51129 6.92261 2.45867 6.94073 2.44597 6.97699ZM3.24798 6.94617C3.19536 6.95886 3.15907 6.9933 3.16452 7.03499C3.16996 7.07125 3.21714 7.09481 3.27157 7.08212C3.32419 7.06943 3.36048 7.03499 3.35504 6.99874C3.3496 6.9643 3.3006 6.94073 3.24798 6.94617ZM4.44194 0C1.9252 0 0 1.90875 0 4.42293C0 6.43319 1.26653 8.15341 3.0756 8.75885C3.30786 8.80054 3.38952 8.65734 3.38952 8.53951C3.38952 8.42713 3.38407 7.80719 3.38407 7.42653C3.38407 7.42653 2.11391 7.69843 1.84718 6.88635C1.84718 6.88635 1.64032 6.35887 1.34274 6.22291C1.34274 6.22291 0.927218 5.93832 1.37177 5.94376C1.37177 5.94376 1.82359 5.98002 2.07218 6.41143C2.46956 7.11113 3.13548 6.90992 3.39496 6.79028C3.43669 6.50025 3.55464 6.29905 3.68528 6.17941C2.67097 6.06702 1.64758 5.9202 1.64758 4.1764C1.64758 3.67792 1.78548 3.42777 2.07581 3.10874C2.02863 2.99091 1.8744 2.50512 2.12298 1.87793C2.50222 1.76011 3.375 2.36735 3.375 2.36735C3.7379 2.26584 4.12802 2.21328 4.51452 2.21328C4.90101 2.21328 5.29113 2.26584 5.65403 2.36735C5.65403 2.36735 6.52681 1.7583 6.90605 1.87793C7.15464 2.50693 7.0004 2.99091 6.95323 3.10874C7.24355 3.42958 7.42137 3.67973 7.42137 4.1764C7.42137 5.92564 6.35262 6.06521 5.33831 6.17941C5.50524 6.32261 5.64677 6.59451 5.64677 7.02049C5.64677 7.63136 5.64133 8.38725 5.64133 8.53589C5.64133 8.65371 5.7248 8.79691 5.95524 8.75522C7.76976 8.15341 9 6.43319 9 4.42293C9 1.90875 6.95867 0 4.44194 0ZM1.76371 6.25192C1.74012 6.27004 1.74556 6.31174 1.77641 6.34618C1.80544 6.37518 1.84718 6.38787 1.87077 6.3643C1.89435 6.34618 1.88891 6.30448 1.85806 6.27004C1.82903 6.24104 1.7873 6.22835 1.76371 6.25192ZM1.56774 6.10509C1.55504 6.12866 1.57319 6.15766 1.60948 6.17579C1.63851 6.19391 1.6748 6.18847 1.6875 6.1631C1.7002 6.13953 1.68206 6.11053 1.64577 6.0924C1.60948 6.08153 1.58044 6.08696 1.56774 6.10509ZM2.15565 6.7504C2.12661 6.77397 2.1375 6.82835 2.17923 6.86279C2.22097 6.90448 2.27359 6.90992 2.29718 6.88092C2.32077 6.85735 2.30988 6.80297 2.27359 6.76853C2.23367 6.72684 2.17923 6.7214 2.15565 6.7504ZM1.94879 6.48394C1.91976 6.50207 1.91976 6.5492 1.94879 6.59089C1.97782 6.63258 2.02681 6.65071 2.0504 6.63258C2.07944 6.60901 2.07944 6.56189 2.0504 6.52019C2.025 6.4785 1.97782 6.46038 1.94879 6.48394Z" fill="#BEBEBE"/>
</svg>
