<svg width="9" height="9" viewBox="0 0 9 9" fill="none" xmlns="http://www.w3.org/2000/svg">
<path d="M8.35714 0H0.640848C0.287277 0 0 0.291295 0 0.648884V8.35112C0 8.70871 0.287277 9 0.640848 9H8.35714C8.71071 9 9 8.70871 9 8.35112V0.648884C9 0.291295 8.71071 0 8.35714 0ZM2.72009 7.71429H1.38616V3.4192H2.7221V7.71429H2.72009ZM2.05312 2.83259C1.62522 2.83259 1.27969 2.48504 1.27969 2.05915C1.27969 1.63326 1.62522 1.28571 2.05312 1.28571C2.47902 1.28571 2.82656 1.63326 2.82656 2.05915C2.82656 2.48705 2.48103 2.83259 2.05312 2.83259V2.83259ZM7.72031 7.71429H6.38638V5.625C6.38638 5.12679 6.37634 4.48594 5.6933 4.48594C4.99821 4.48594 4.89174 5.02835 4.89174 5.58884V7.71429H3.55781V3.4192H4.8375V4.0058H4.85558C5.03437 3.6683 5.47031 3.31272 6.1192 3.31272C7.4692 3.31272 7.72031 4.20268 7.72031 5.35982V7.71429V7.71429Z" fill="#BEBEBE"/>
</svg>
