<svg width="13" height="13" viewBox="0 0 13 13" fill="none" xmlns="http://www.w3.org/2000/svg">
<path d="M1.215 3.71252L6.22379 0.709517C6.30797 0.659006 6.4043 0.632324 6.50248 0.632324C6.60065 0.632324 6.69698 0.659006 6.78117 0.709517L11.7851 3.71306C11.8252 3.73712 11.8585 3.77117 11.8815 3.81189C11.9046 3.85262 11.9167 3.89863 11.9167 3.94543V10.8333C11.9167 10.9769 11.8596 11.1147 11.7581 11.2163C11.6565 11.3179 11.5187 11.3749 11.375 11.3749H1.62504C1.48138 11.3749 1.34361 11.3179 1.24202 11.2163C1.14044 11.1147 1.08337 10.9769 1.08337 10.8333V3.94489C1.08336 3.89809 1.09548 3.85208 1.11855 3.81135C1.14162 3.77063 1.17485 3.73657 1.215 3.71252ZM2.16671 4.40531V10.2916H10.8334V4.40477L6.50221 1.80477L2.16671 4.40477V4.40531ZM6.53254 7.41968L9.40121 5.00222L10.0989 5.83098L6.54012 8.83018L2.90554 5.83477L3.59454 4.99843L6.53254 7.41968V7.41968Z" fill="#BEBEBE"/>
</svg>
